<svg width="177" height="58" viewBox="0 0 177 58" fill="none" xmlns="http://www.w3.org/2000/svg">
<path d="M100.922 24.144C100.59 24.144 100.551 23.9291 100.805 23.4995L108.324 10.7358C108.559 10.3386 108.819 10.1401 109.105 10.1401H110.473C110.74 10.1401 110.909 10.3386 110.98 10.7358L113.188 23.4995C113.259 23.9291 113.122 24.144 112.777 24.144H111.889C111.544 24.144 111.345 23.9845 111.293 23.6655L110.736 20.433H104.73L102.826 23.6655C102.637 23.9845 102.367 24.144 102.016 24.144H100.922ZM105.688 18.8315H110.453L109.77 14.9252C109.685 14.4565 109.617 13.9454 109.564 13.392C109.512 12.8321 109.486 12.3113 109.486 11.8295H109.447C109.33 12.2918 109.148 12.7638 108.9 13.2455C108.653 13.7273 108.344 14.2872 107.973 14.9252L105.688 18.8315ZM114.945 20.2768C114.945 18.3237 115.453 16.7449 116.469 15.5405C117.491 14.3295 118.884 13.7241 120.648 13.7241C121.658 13.7241 122.471 14.0138 123.09 14.5932C123.715 15.1661 124.027 15.8172 124.027 16.5463C124.027 17.5099 123.565 18.2195 122.641 18.6752C121.723 19.131 120.583 19.4955 119.223 19.769L116.82 20.2475C116.781 20.4949 116.762 20.6251 116.762 20.6381C116.762 21.2827 116.938 21.8425 117.289 22.3178C117.641 22.7931 118.256 23.0307 119.135 23.0307C119.883 23.0307 120.486 22.894 120.941 22.6205C121.397 22.3471 121.706 22.0997 121.869 21.8784C122.097 21.5724 122.302 21.504 122.484 21.6733L123.061 22.1713C123.184 22.282 123.165 22.4643 123.002 22.7182C122.852 22.9526 122.449 23.2781 121.791 23.6948C121.133 24.1049 120.17 24.31 118.9 24.31C117.514 24.31 116.508 23.9096 115.883 23.1088C115.258 22.3015 114.945 21.3575 114.945 20.2768ZM116.869 18.8901L118.871 18.4995C119.783 18.3237 120.583 18.0828 121.273 17.7768C121.964 17.4643 122.309 17.0281 122.309 16.4682C122.309 16.0255 122.107 15.6707 121.703 15.4037C121.306 15.1303 120.847 14.9936 120.326 14.9936C119.538 14.9936 118.835 15.2931 118.217 15.892C117.605 16.491 117.156 17.4903 116.869 18.8901ZM125.561 24.144C125.268 24.144 125.154 23.9975 125.219 23.7045L127.387 14.3295C127.452 14.0366 127.631 13.8901 127.924 13.8901H128.744C129.037 13.8901 129.151 14.0366 129.086 14.3295L128.725 15.892H128.764C129.232 15.1564 129.711 14.6127 130.199 14.2612C130.694 13.9031 131.277 13.7241 131.947 13.7241C132.331 13.7241 132.602 13.7599 132.758 13.8315C132.882 13.8836 132.914 13.9812 132.855 14.1245L132.533 14.9252C132.488 15.0424 132.393 15.088 132.25 15.062C132.029 15.0164 131.804 14.9936 131.576 14.9936C130.867 14.9936 130.147 15.4558 129.418 16.3803C128.689 17.2983 128.21 18.2455 127.982 19.2221L126.938 23.7045C126.872 23.9975 126.693 24.144 126.4 24.144H125.561ZM132.523 20.2182C132.523 18.4995 133.054 16.989 134.115 15.687C135.183 14.3784 136.579 13.7241 138.305 13.7241C139.828 13.7241 140.893 14.1635 141.498 15.0424C142.104 15.9148 142.406 16.8393 142.406 17.8159C142.406 19.5346 141.872 21.0483 140.805 22.3569C139.743 23.659 138.35 24.31 136.625 24.31C135.102 24.31 134.037 23.8738 133.432 23.0014C132.826 22.1225 132.523 21.1948 132.523 20.2182ZM134.34 20.3647C134.34 21.1785 134.529 21.8295 134.906 22.3178C135.29 22.7996 135.906 23.0405 136.752 23.0405C137.768 23.0405 138.66 22.5815 139.428 21.6635C140.202 20.739 140.59 19.4077 140.59 17.6694C140.59 16.8556 140.398 16.2078 140.014 15.726C139.636 15.2377 139.024 14.9936 138.178 14.9936C137.162 14.9936 136.267 15.4558 135.492 16.3803C134.724 17.2983 134.34 18.6264 134.34 20.3647ZM102.074 43.4799C102.074 40.9083 102.758 38.8282 104.125 37.2397C105.499 35.6446 107.413 34.8471 109.867 34.8471C111.065 34.8471 112.035 35.0554 112.777 35.4721C113.52 35.8888 114.044 36.4422 114.35 37.1323C114.499 37.4773 114.424 37.7377 114.125 37.9135L113.363 38.3627C113.188 38.4669 113.018 38.3758 112.855 38.0893C112.66 37.7377 112.305 37.3634 111.791 36.9662C111.277 36.5691 110.58 36.3705 109.701 36.3705C108.074 36.3705 106.729 36.9662 105.668 38.1577C104.607 39.3491 104.076 41.198 104.076 43.7045C104.076 44.8894 104.389 45.8888 105.014 46.7026C105.639 47.5099 106.7 47.9135 108.197 47.9135C109.083 47.9135 109.831 47.6824 110.443 47.2202C111.062 46.7514 111.54 46.2827 111.879 45.8139C112.152 45.4363 112.406 45.3224 112.641 45.4721L113.52 46.0385C113.734 46.1752 113.708 46.4356 113.441 46.8198C112.927 47.5685 112.234 48.1935 111.361 48.6948C110.489 49.1896 109.346 49.437 107.934 49.437C105.967 49.437 104.499 48.8771 103.529 47.7573C102.559 46.631 102.074 45.2052 102.074 43.4799ZM115.258 45.2182C115.258 43.4995 115.788 41.989 116.85 40.687C117.917 39.3784 119.314 38.7241 121.039 38.7241C122.562 38.7241 123.627 39.1635 124.232 40.0424C124.838 40.9148 125.141 41.8393 125.141 42.8159C125.141 44.5346 124.607 46.0483 123.539 47.3569C122.478 48.659 121.085 49.31 119.359 49.31C117.836 49.31 116.771 48.8738 116.166 48.0014C115.561 47.1225 115.258 46.1948 115.258 45.2182ZM117.074 45.3647C117.074 46.1785 117.263 46.8295 117.641 47.3178C118.025 47.7996 118.64 48.0405 119.486 48.0405C120.502 48.0405 121.394 47.5815 122.162 46.6635C122.937 45.739 123.324 44.4077 123.324 42.6694C123.324 41.8556 123.132 41.2078 122.748 40.726C122.37 40.2377 121.758 39.9936 120.912 39.9936C119.896 39.9936 119.001 40.4558 118.227 41.3803C117.458 42.2983 117.074 43.6264 117.074 45.3647ZM126.557 49.144C126.264 49.144 126.15 48.9975 126.215 48.7045L128.383 39.3295C128.448 39.0366 128.627 38.8901 128.92 38.8901H129.74C130.033 38.8901 130.147 39.0366 130.082 39.3295L129.818 40.5014H129.857C130.242 40.0261 130.74 39.6127 131.352 39.2612C131.97 38.9031 132.67 38.7241 133.451 38.7241C134.558 38.7241 135.313 39.0593 135.717 39.7299C136.12 40.394 136.189 41.3054 135.922 42.4643L134.477 48.7045C134.411 48.9975 134.232 49.144 133.939 49.144H133.1C132.807 49.144 132.693 48.9975 132.758 48.7045L134.096 42.933C134.389 41.657 134.379 40.8497 134.066 40.5112C133.754 40.1661 133.24 39.9936 132.523 39.9936C131.742 39.9936 131.029 40.3745 130.385 41.1362C129.747 41.8914 129.314 42.7573 129.086 43.7338L127.934 48.7045C127.868 48.9975 127.689 49.144 127.396 49.144H126.557ZM137.572 49.144C137.279 49.144 137.165 48.9975 137.23 48.7045L139.398 39.3295C139.464 39.0366 139.643 38.8901 139.936 38.8901H140.756C141.049 38.8901 141.163 39.0366 141.098 39.3295L140.834 40.5014H140.873C141.257 40.0261 141.755 39.6127 142.367 39.2612C142.986 38.9031 143.686 38.7241 144.467 38.7241C145.574 38.7241 146.329 39.0593 146.732 39.7299C147.136 40.394 147.204 41.3054 146.938 42.4643L145.492 48.7045C145.427 48.9975 145.248 49.144 144.955 49.144H144.115C143.822 49.144 143.708 48.9975 143.773 48.7045L145.111 42.933C145.404 41.657 145.395 40.8497 145.082 40.5112C144.77 40.1661 144.255 39.9936 143.539 39.9936C142.758 39.9936 142.045 40.3745 141.4 41.1362C140.762 41.8914 140.329 42.7573 140.102 43.7338L138.949 48.7045C138.884 48.9975 138.705 49.144 138.412 49.144H137.572ZM148.5 45.2768C148.5 43.3237 149.008 41.7449 150.023 40.5405C151.046 39.3295 152.439 38.7241 154.203 38.7241C155.212 38.7241 156.026 39.0138 156.645 39.5932C157.27 40.1661 157.582 40.8172 157.582 41.5463C157.582 42.5099 157.12 43.2195 156.195 43.6752C155.277 44.131 154.138 44.4955 152.777 44.769L150.375 45.2475C150.336 45.4949 150.316 45.6251 150.316 45.6381C150.316 46.2827 150.492 46.8425 150.844 47.3178C151.195 47.7931 151.811 48.0307 152.689 48.0307C153.438 48.0307 154.04 47.894 154.496 47.6205C154.952 47.3471 155.261 47.0997 155.424 46.8784C155.652 46.5724 155.857 46.504 156.039 46.6733L156.615 47.1713C156.739 47.282 156.719 47.4643 156.557 47.7182C156.407 47.9526 156.003 48.2781 155.346 48.6948C154.688 49.1049 153.725 49.31 152.455 49.31C151.068 49.31 150.062 48.9096 149.438 48.1088C148.812 47.3015 148.5 46.3575 148.5 45.2768ZM150.424 43.8901L152.426 43.4995C153.337 43.3237 154.138 43.0828 154.828 42.7768C155.518 42.4643 155.863 42.0281 155.863 41.4682C155.863 41.0255 155.661 40.6707 155.258 40.4037C154.861 40.1303 154.402 39.9936 153.881 39.9936C153.093 39.9936 152.39 40.2931 151.771 40.892C151.16 41.491 150.71 42.4903 150.424 43.8901ZM159.027 45.2182C159.027 43.4929 159.558 41.9793 160.619 40.6772C161.687 39.3751 163.083 38.7241 164.809 38.7241C165.863 38.7241 166.615 38.9096 167.064 39.2807C167.514 39.6453 167.839 40.0489 168.041 40.4916C168.145 40.726 168.1 40.8953 167.904 40.9995L167.26 41.3412C167.038 41.4584 166.866 41.3771 166.742 41.0971C166.651 40.8888 166.443 40.6544 166.117 40.394C165.792 40.1271 165.313 39.9936 164.682 39.9936C163.666 39.9936 162.771 40.4493 161.996 41.3608C161.228 42.2722 160.844 43.6069 160.844 45.3647C160.844 46.159 161.033 46.8035 161.41 47.2983C161.794 47.7931 162.41 48.0405 163.256 48.0405C163.926 48.0405 164.477 47.8679 164.906 47.5229C165.336 47.1713 165.642 46.8588 165.824 46.5854C165.974 46.3575 166.146 46.312 166.342 46.4487L166.957 46.8979C167.146 47.0346 167.162 47.2136 167.006 47.435C166.817 47.6954 166.404 48.073 165.766 48.5678C165.128 49.0626 164.249 49.31 163.129 49.31C161.605 49.31 160.541 48.8771 159.936 48.0112C159.33 47.1388 159.027 46.2078 159.027 45.2182ZM170.434 40.1791C170.141 40.1791 170.02 40.0652 170.072 39.8373L170.209 39.2319C170.261 39.004 170.434 38.8901 170.727 38.8901H171.879L172.084 38.0112C172.117 37.8875 172.178 37.7638 172.27 37.6401L173.236 36.3998C173.412 36.172 173.539 36.058 173.617 36.058H173.959C174.154 36.058 174.226 36.172 174.174 36.3998L173.598 38.8901H175.678C175.971 38.8901 176.091 39.004 176.039 39.2319L175.902 39.8373C175.85 40.0652 175.678 40.1791 175.385 40.1791H173.305L171.869 46.3998C171.713 47.0834 171.713 47.5294 171.869 47.7377C172.032 47.9396 172.227 48.0405 172.455 48.0405C172.755 48.0405 173.064 47.9851 173.383 47.8745C173.702 47.7573 173.917 47.6629 174.027 47.5912C174.171 47.5001 174.265 47.5196 174.311 47.6498L174.564 48.353C174.604 48.4702 174.568 48.5646 174.457 48.6362C174.19 48.8054 173.799 48.9617 173.285 49.1049C172.777 49.2416 172.234 49.31 171.654 49.31C171.081 49.31 170.629 49.0659 170.297 48.5776C169.971 48.0893 169.913 47.3992 170.121 46.5073L171.586 40.1791H170.434Z" fill="#D9D9D9"/>
<path d="M29.661 5.46712L0 36.7946L10.1695 33.5837L19.661 24.6454L13.6441 32.4556L21.4407 30.0258L27.7119 24.0814L23.7288 29.2447L30.4237 27.162L39.7458 28.5505C41.0654 36.7865 42.1681 41.3298 44.4068 49.3776C43.7971 41.6491 44.0999 39.0998 45.0424 35.6664C46.1006 39.2666 46.1946 42.3664 45.678 49.3776C47.965 41.5532 48.9908 36.9968 50.339 28.5505L59.5763 27.162L66.3559 29.2447L62.2881 23.9512L68.5593 30.0258L76.4407 32.4556L70.339 24.5586L79.9153 33.5837L90 36.7078L60.4237 5.46712L50.1695 9.45898C48.791 4.05848 47.6752 1.96933 45.0424 0C42.4119 2.01352 41.2939 4.09663 39.9153 9.45898L29.661 5.46712Z" fill="#774BBE"/>
</svg>
