<svg width="1062" height="569" viewBox="0 0 1062 569" fill="none" xmlns="http://www.w3.org/2000/svg">
<path d="M350 63L0 424L120 387L232 284L161 374L253 346L327 277.5L280 337L359 313L469 329C484.572 423.906 497.583 476.261 524 569C516.806 479.94 520.379 450.564 531.5 411C543.987 452.486 545.096 488.207 539 569C565.987 478.836 578.092 426.331 594 329L703 313L783 337L735 276L809 346L902 374L830 283L943 387L1062 423L713 63L592 109C575.734 46.7676 562.568 22.6934 531.5 0C500.461 23.2027 487.268 47.2072 471 109L350 63Z" fill="#774BBE"/>
</svg>
